<svg width="25" height="25" viewBox="0 0 25 25" fill="none" xmlns="http://www.w3.org/2000/svg">
<path d="M14.5834 20.8333C15.1359 20.8333 15.6658 20.6138 16.0566 20.2231C16.4473 19.8324 16.6667 19.3025 16.6667 18.75C16.6667 18.1974 16.4473 17.6675 16.0566 17.2768C15.6658 16.8861 15.1359 16.6666 14.5834 16.6666C14.0309 16.6666 13.501 16.8861 13.1103 17.2768C12.7196 17.6675 12.5001 18.1974 12.5001 18.75C12.5001 19.3025 12.7196 19.8324 13.1103 20.2231C13.501 20.6138 14.0309 20.8333 14.5834 20.8333ZM7.29174 20.8333C7.84428 20.8333 8.37418 20.6138 8.76488 20.2231C9.15558 19.8324 9.37508 19.3025 9.37508 18.75C9.37508 18.1974 9.15558 17.6675 8.76488 17.2768C8.37418 16.8861 7.84428 16.6666 7.29174 16.6666C6.73921 16.6666 6.20931 16.8861 5.81861 17.2768C5.4279 17.6675 5.20841 18.1974 5.20841 18.75C5.20841 19.3025 5.4279 19.8324 5.81861 20.2231C6.20931 20.6138 6.73921 20.8333 7.29174 20.8333ZM20.873 6.16975C21.133 6.16136 21.3796 6.05217 21.5606 5.86525C21.7416 5.67834 21.8428 5.42836 21.8428 5.16819C21.8428 4.90801 21.7416 4.65804 21.5606 4.47112C21.3796 4.28421 21.133 4.17501 20.873 4.16663H19.674C18.7345 4.16663 17.922 4.81871 17.7178 5.73538L16.4126 11.6125C16.2084 12.5291 15.3959 13.1812 14.4563 13.1812H6.63133L5.12924 7.17079H14.8636C15.1212 7.15904 15.3644 7.04844 15.5425 6.86199C15.7206 6.67555 15.82 6.42761 15.82 6.16975C15.82 5.91189 15.7206 5.66395 15.5425 5.47751C15.3644 5.29106 15.1212 5.18046 14.8636 5.16871H5.12924C4.82473 5.16862 4.5242 5.23796 4.25051 5.37145C3.97682 5.50495 3.73716 5.69909 3.54976 5.93911C3.36236 6.17913 3.23215 6.45872 3.16903 6.75662C3.10591 7.05452 3.11154 7.36289 3.1855 7.65829L4.68758 13.6666C4.79586 14.1002 5.046 14.485 5.39821 14.7601C5.75042 15.0351 6.18447 15.1844 6.63133 15.1843H14.4563C15.368 15.1845 16.2524 14.8736 16.9636 14.3032C17.6748 13.7327 18.1701 12.9368 18.3678 12.0468L19.674 6.16975H20.873Z" fill="white"/>
</svg>
