<svg width="20" height="19" viewBox="0 0 20 19" fill="none" xmlns="http://www.w3.org/2000/svg">
<g clip-path="url(#clip0_310_627)">
<path d="M17.5069 16.0085L17.5069 16.0085C17.5897 16.0914 17.6881 16.1571 17.7963 16.2019C17.9046 16.2468 18.0206 16.2698 18.1377 16.2698C18.2549 16.2698 18.3709 16.2468 18.4791 16.2019C18.5873 16.1571 18.6857 16.0914 18.7685 16.0085C18.8514 15.9257 18.9171 15.8274 18.9619 15.7191C19.0068 15.6109 19.0298 15.4949 19.0298 15.3777C19.0298 15.2606 19.0068 15.1446 18.9619 15.0363C18.9171 14.9281 18.8514 14.8298 18.7685 14.7469L18.7685 14.7469L15.4368 11.416C16.4021 10.135 16.8547 8.53846 16.7038 6.93943C16.5501 5.31054 15.7816 3.80139 14.5547 2.719C13.3277 1.63662 11.7345 1.06232 10.0992 1.11292C8.46381 1.16352 6.90917 1.83523 5.7515 2.99141C4.59282 4.14838 3.91891 5.70363 3.86709 7.34023C3.81528 8.97682 4.38946 10.5716 5.47264 11.7995C6.55581 13.0275 8.06645 13.7962 9.69672 13.9491C11.2973 14.0991 12.8949 13.6444 14.1757 12.6766L17.5069 16.0085ZM13.5895 4.25366C14.0271 4.68416 14.3751 5.19703 14.6135 5.76269C14.8518 6.32835 14.9758 6.93561 14.9783 7.54944C14.9808 8.16327 14.8618 8.77152 14.628 9.3391C14.3943 9.90669 14.0505 10.4224 13.6164 10.8564C13.1824 11.2905 12.6667 11.6343 12.0991 11.868C11.5315 12.1018 10.9233 12.2208 10.3094 12.2183C9.6956 12.2158 9.08834 12.0918 8.52268 11.8535C7.95702 11.6151 7.44415 11.2671 7.01365 10.8295C6.15334 9.9551 5.67341 8.77613 5.6784 7.54944C5.6834 6.32275 6.17291 5.14773 7.04032 4.28033C7.90772 3.41292 9.08274 2.92341 10.3094 2.91841C11.5361 2.91342 12.7151 3.39335 13.5895 4.25366Z" fill="white" stroke="white" stroke-width="0.2"/>
</g>
<defs>
<clipPath id="clip0_310_627">
<rect width="19" height="19" fill="white" transform="translate(0.800537)"/>
</clipPath>
</defs>
</svg>
